# MagicaVoxel @ ephtracy

# material
mtllib Character_Blue.mtl
usemtl palette

# normals
vn -1 0 0
vn 1 0 0
vn 0 0 1
vn 0 0 -1
vn 0 -1 0
vn 0 1 0

# texcoords
vt 0.271484 0.5
vt 0.279297 0.5
vt 0.298828 0.5
vt 0.783203 0.5
vt 0.869141 0.5
vt 0.970703 0.5

# verts and faces
v -6 2 1
v -6 2 -1
v -6 14 1
v -6 14 -1
f -2/5/1 -3/5/1 -4/5/1
f -1/5/1 -3/5/1 -2/5/1
v -5 12 2
v -5 12 1
v -5 12 -1
v -5 12 -2
v -5 13 2
v -5 13 1
v -5 13 -1
v -5 13 -2
v -5 14 1
v -5 14 -1
v -5 15 1
v -5 15 -1
f -8/3/1 -11/3/1 -12/3/1
f -7/3/1 -11/3/1 -8/3/1
f -6/3/1 -9/3/1 -10/3/1
f -5/3/1 -9/3/1 -6/3/1
f -2/5/1 -3/5/1 -4/5/1
f -1/5/1 -3/5/1 -2/5/1
v -4 5 2
v -4 5 -2
v -4 6 3
v -4 6 2
v -4 6 -2
v -4 6 -3
v -4 12 2
v -4 12 -2
v -4 13 3
v -4 13 2
v -4 13 1
v -4 13 -1
v -4 13 -2
v -4 13 -3
v -4 14 2
v -4 14 1
v -4 14 -1
v -4 14 -2
f -15/5/1 -17/5/1 -18/5/1
f -14/5/1 -17/5/1 -15/5/1
f -12/5/1 -15/5/1 -16/5/1
f -12/5/1 -13/5/1 -14/5/1
f -12/5/1 -14/5/1 -15/5/1
f -11/5/1 -13/5/1 -12/5/1
f -10/5/1 -12/5/1 -16/5/1
f -9/5/1 -12/5/1 -10/5/1
f -6/5/1 -13/5/1 -11/5/1
f -5/5/1 -13/5/1 -6/5/1
f -4/3/1 -8/3/1 -9/3/1
f -3/3/1 -8/3/1 -4/3/1
f -2/3/1 -6/3/1 -7/3/1
f -1/3/1 -6/3/1 -2/3/1
v -3 3 -0
v -3 3 -1
v -3 4 -0
v -3 4 -1
v -3 5 -0
v -3 5 -1
v -3 5 -2
v -3 5 -3
v -3 6 -2
v -3 6 -3
v -3 6 -4
v -3 11 4
v -3 11 3
v -3 13 4
v -3 13 3
v -3 13 2
v -3 13 -2
v -3 13 -3
v -3 13 -4
v -3 14 3
v -3 14 2
v -3 14 1
v -3 14 -1
v -3 14 -2
v -3 14 -3
v -3 15 2
v -3 15 1
v -3 15 -1
v -3 15 -2
f -27/1/1 -28/1/1 -29/1/1
f -26/1/1 -28/1/1 -27/1/1
f -25/6/1 -26/6/1 -27/6/1
f -24/6/1 -26/6/1 -25/6/1
f -21/5/1 -22/5/1 -23/5/1
f -20/5/1 -22/5/1 -21/5/1
f -16/5/1 -17/5/1 -18/5/1
f -15/5/1 -17/5/1 -16/5/1
f -12/5/1 -19/5/1 -20/5/1
f -11/5/1 -19/5/1 -12/5/1
f -10/5/1 -14/5/1 -15/5/1
f -9/5/1 -14/5/1 -10/5/1
f -6/5/1 -12/5/1 -13/5/1
f -5/5/1 -12/5/1 -6/5/1
f -4/3/1 -8/3/1 -9/3/1
f -3/3/1 -8/3/1 -4/3/1
f -2/3/1 -6/3/1 -7/3/1
f -1/3/1 -6/3/1 -2/3/1
v -2 0 1
v -2 0 -1
v -2 1 1
v -2 1 -0
v -2 1 -1
v -2 2 1
v -2 2 -0
v -2 2 -1
v -2 3 1
v -2 3 -0
v -2 3 -1
v -2 4 -0
v -2 5 -0
v -2 6 1
v -2 6 -0
v -2 7 1
v -2 7 -0
f -15/2/1 -16/2/1 -17/2/1
f -14/2/1 -16/2/1 -15/2/1
f -13/2/1 -16/2/1 -14/2/1
f -11/4/1 -13/4/1 -14/4/1
f -10/4/1 -13/4/1 -11/4/1
f -9/6/1 -11/6/1 -12/6/1
f -9/6/1 -10/6/1 -11/6/1
f -8/6/1 -10/6/1 -9/6/1
f -7/6/1 -10/6/1 -8/6/1
f -6/1/1 -8/1/1 -9/1/1
f -5/1/1 -6/1/1 -9/1/1
f -4/1/1 -5/1/1 -9/1/1
f -3/1/1 -5/1/1 -4/1/1
f -2/6/1 -3/6/1 -4/6/1
f -1/6/1 -3/6/1 -2/6/1
v 1 0 1
v 1 0 -1
v 1 1 1
v 1 1 -0
v 1 1 -1
v 1 2 -0
v 1 2 -1
f -5/2/1 -6/2/1 -7/2/1
f -4/2/1 -6/2/1 -5/2/1
f -3/2/1 -6/2/1 -4/2/1
f -2/4/1 -3/4/1 -4/4/1
f -1/4/1 -3/4/1 -2/4/1
v 2 14 2
v 2 14 -2
v 2 15 2
v 2 15 -2
f -2/3/1 -3/3/1 -4/3/1
f -1/3/1 -3/3/1 -2/3/1
v 3 5 2
v 3 5 -0
v 3 6 3
v 3 6 2
v 3 6 -0
v 3 7 3
v 3 7 -0
f -4/5/1 -6/5/1 -7/5/1
f -3/5/1 -6/5/1 -4/5/1
f -2/5/1 -4/5/1 -5/5/1
f -2/5/1 -3/5/1 -4/5/1
f -1/5/1 -3/5/1 -2/5/1
v 5 2 1
v 5 2 -1
v 5 12 1
v 5 12 -1
f -2/5/1 -3/5/1 -4/5/1
f -1/5/1 -3/5/1 -2/5/1
v -5 2 1
v -5 2 -1
v -5 12 1
v -5 12 -1
f -4/5/2 -3/5/2 -2/5/2
f -2/5/2 -3/5/2 -1/5/2
v -3 5 2
v -3 5 -0
v -3 6 3
v -3 6 2
v -3 6 -0
v -3 7 3
v -3 7 -0
f -7/5/2 -6/5/2 -4/5/2
f -4/5/2 -6/5/2 -3/5/2
f -5/5/2 -4/5/2 -2/5/2
f -4/5/2 -3/5/2 -2/5/2
f -2/5/2 -3/5/2 -1/5/2
v -2 14 2
v -2 14 -2
v -2 15 2
v -2 15 -2
f -4/3/2 -3/3/2 -2/3/2
f -2/3/2 -3/3/2 -1/3/2
v -1 0 1
v -1 0 -1
v -1 1 1
v -1 1 -0
v -1 1 -1
v -1 2 -0
v -1 2 -1
f -7/2/2 -6/2/2 -5/2/2
f -5/2/2 -6/2/2 -4/2/2
f -4/2/2 -6/2/2 -3/2/2
f -4/4/2 -3/4/2 -2/4/2
f -2/4/2 -3/4/2 -1/4/2
v 2 0 1
v 2 0 -1
v 2 1 1
v 2 1 -0
v 2 1 -1
v 2 2 1
v 2 2 -0
v 2 2 -1
v 2 3 1
v 2 3 -0
v 2 3 -1
v 2 4 -0
v 2 5 -0
v 2 6 1
v 2 6 -0
v 2 7 1
v 2 7 -0
f -17/2/2 -16/2/2 -15/2/2
f -15/2/2 -16/2/2 -14/2/2
f -14/2/2 -16/2/2 -13/2/2
f -14/4/2 -13/4/2 -11/4/2
f -11/4/2 -13/4/2 -10/4/2
f -12/6/2 -11/6/2 -9/6/2
f -11/6/2 -10/6/2 -9/6/2
f -9/6/2 -10/6/2 -8/6/2
f -8/6/2 -10/6/2 -7/6/2
f -9/1/2 -8/1/2 -6/1/2
f -9/1/2 -6/1/2 -5/1/2
f -9/1/2 -5/1/2 -4/1/2
f -4/1/2 -5/1/2 -3/1/2
f -4/6/2 -3/6/2 -2/6/2
f -2/6/2 -3/6/2 -1/6/2
v 3 3 -0
v 3 3 -1
v 3 4 -0
v 3 4 -1
v 3 5 -0
v 3 5 -1
v 3 5 -2
v 3 5 -3
v 3 6 -2
v 3 6 -3
v 3 6 -4
v 3 11 4
v 3 11 3
v 3 13 4
v 3 13 3
v 3 13 2
v 3 13 -2
v 3 13 -3
v 3 13 -4
v 3 14 3
v 3 14 2
v 3 14 1
v 3 14 -1
v 3 14 -2
v 3 14 -3
v 3 15 2
v 3 15 1
v 3 15 -1
v 3 15 -2
f -29/1/2 -28/1/2 -27/1/2
f -27/1/2 -28/1/2 -26/1/2
f -27/6/2 -26/6/2 -25/6/2
f -25/6/2 -26/6/2 -24/6/2
f -23/5/2 -22/5/2 -21/5/2
f -21/5/2 -22/5/2 -20/5/2
f -18/5/2 -17/5/2 -16/5/2
f -16/5/2 -17/5/2 -15/5/2
f -20/5/2 -19/5/2 -12/5/2
f -12/5/2 -19/5/2 -11/5/2
f -15/5/2 -14/5/2 -10/5/2
f -10/5/2 -14/5/2 -9/5/2
f -13/5/2 -12/5/2 -6/5/2
f -6/5/2 -12/5/2 -5/5/2
f -9/3/2 -8/3/2 -4/3/2
f -4/3/2 -8/3/2 -3/3/2
f -7/3/2 -6/3/2 -2/3/2
f -2/3/2 -6/3/2 -1/3/2
v 4 5 2
v 4 5 -2
v 4 6 3
v 4 6 2
v 4 6 -2
v 4 6 -3
v 4 12 2
v 4 12 -2
v 4 13 3
v 4 13 2
v 4 13 1
v 4 13 -1
v 4 13 -2
v 4 13 -3
v 4 14 2
v 4 14 1
v 4 14 -1
v 4 14 -2
f -18/5/2 -17/5/2 -15/5/2
f -15/5/2 -17/5/2 -14/5/2
f -16/5/2 -15/5/2 -12/5/2
f -14/5/2 -13/5/2 -12/5/2
f -15/5/2 -14/5/2 -12/5/2
f -12/5/2 -13/5/2 -11/5/2
f -16/5/2 -12/5/2 -10/5/2
f -10/5/2 -12/5/2 -9/5/2
f -11/5/2 -13/5/2 -6/5/2
f -6/5/2 -13/5/2 -5/5/2
f -9/3/2 -8/3/2 -4/3/2
f -4/3/2 -8/3/2 -3/3/2
f -7/3/2 -6/3/2 -2/3/2
f -2/3/2 -6/3/2 -1/3/2
v 5 12 2
v 5 12 1
v 5 12 -1
v 5 12 -2
v 5 13 2
v 5 13 1
v 5 13 -1
v 5 13 -2
v 5 14 1
v 5 14 -1
v 5 15 1
v 5 15 -1
f -12/3/2 -11/3/2 -8/3/2
f -8/3/2 -11/3/2 -7/3/2
f -10/3/2 -9/3/2 -6/3/2
f -6/3/2 -9/3/2 -5/3/2
f -4/5/2 -3/5/2 -2/5/2
f -2/5/2 -3/5/2 -1/5/2
v 6 2 1
v 6 2 -1
v 6 14 1
v 6 14 -1
f -4/5/2 -3/5/2 -2/5/2
f -2/5/2 -3/5/2 -1/5/2
v -3 11 4
v -3 13 4
v 3 11 4
v 3 13 4
f -2/5/3 -3/5/3 -4/5/3
f -1/5/3 -3/5/3 -2/5/3
v -4 6 3
v -4 13 3
v -3 6 3
v -3 7 3
v -3 11 3
v -3 13 3
v -3 14 3
v -2 9 3
v -2 10 3
v -1 9 3
v -1 10 3
v 1 9 3
v 1 10 3
v 2 9 3
v 2 10 3
v 3 6 3
v 3 7 3
v 3 11 3
v 3 13 3
v 3 14 3
v 4 6 3
v 4 13 3
f -20/5/3 -21/5/3 -22/5/3
f -19/5/3 -21/5/3 -20/5/3
f -18/5/3 -21/5/3 -19/5/3
f -17/5/3 -21/5/3 -18/5/3
f -15/4/3 -18/4/3 -19/4/3
f -14/4/3 -18/4/3 -15/4/3
f -13/4/3 -15/4/3 -19/4/3
f -13/3/3 -14/3/3 -15/3/3
f -12/4/3 -18/4/3 -14/4/3
f -12/3/3 -14/3/3 -13/3/3
f -11/4/3 -13/4/3 -19/4/3
f -11/4/3 -12/4/3 -13/4/3
f -10/4/3 -18/4/3 -12/4/3
f -10/4/3 -12/4/3 -11/4/3
f -9/4/3 -11/4/3 -19/4/3
f -9/3/3 -10/3/3 -11/3/3
f -8/4/3 -18/4/3 -10/4/3
f -8/3/3 -10/3/3 -9/3/3
f -6/4/3 -9/4/3 -19/4/3
f -6/4/3 -8/4/3 -9/4/3
f -5/4/3 -18/4/3 -8/4/3
f -5/4/3 -8/4/3 -6/4/3
f -4/5/3 -16/5/3 -17/5/3
f -3/5/3 -16/5/3 -4/5/3
f -2/5/3 -5/5/3 -6/5/3
f -2/5/3 -6/5/3 -7/5/3
f -2/5/3 -4/5/3 -5/5/3
f -1/5/3 -4/5/3 -2/5/3
v -5 12 2
v -5 13 2
v -4 5 2
v -4 6 2
v -4 12 2
v -4 13 2
v -4 14 2
v -3 5 2
v -3 6 2
v -3 13 2
v -3 14 2
v -3 15 2
v -2 14 2
v -2 15 2
v 2 14 2
v 2 15 2
v 3 5 2
v 3 6 2
v 3 13 2
v 3 14 2
v 3 15 2
v 4 5 2
v 4 6 2
v 4 12 2
v 4 13 2
v 4 14 2
v 5 12 2
v 5 13 2
f -24/3/3 -27/3/3 -28/3/3
f -23/3/3 -27/3/3 -24/3/3
f -21/5/3 -25/5/3 -26/5/3
f -20/5/3 -25/5/3 -21/5/3
f -19/3/3 -22/3/3 -23/3/3
f -18/3/3 -22/3/3 -19/3/3
f -16/3/3 -17/3/3 -18/3/3
f -15/3/3 -17/3/3 -16/3/3
f -9/3/3 -13/3/3 -14/3/3
f -8/3/3 -13/3/3 -9/3/3
f -7/5/3 -11/5/3 -12/5/3
f -6/5/3 -11/5/3 -7/5/3
f -4/3/3 -9/3/3 -10/3/3
f -3/3/3 -9/3/3 -4/3/3
f -2/3/3 -4/3/3 -5/3/3
f -1/3/3 -4/3/3 -2/3/3
v -6 2 1
v -6 14 1
v -5 2 1
v -5 12 1
v -5 13 1
v -5 14 1
v -5 15 1
v -4 13 1
v -4 14 1
v -3 14 1
v -3 15 1
v -2 0 1
v -2 1 1
v -2 2 1
v -2 3 1
v -2 6 1
v -2 7 1
v -1 0 1
v -1 1 1
v -1 5 1
v -1 6 1
v -1 7 1
v 1 0 1
v 1 1 1
v 1 5 1
v 1 6 1
v 1 7 1
v 2 0 1
v 2 1 1
v 2 2 1
v 2 3 1
v 2 6 1
v 2 7 1
v 3 14 1
v 3 15 1
v 4 13 1
v 4 14 1
v 5 2 1
v 5 12 1
v 5 13 1
v 5 14 1
v 5 15 1
v 6 2 1
v 6 14 1
f -42/5/3 -43/5/3 -44/5/3
f -41/5/3 -43/5/3 -42/5/3
f -40/5/3 -43/5/3 -41/5/3
f -39/5/3 -43/5/3 -40/5/3
f -37/5/3 -38/5/3 -39/5/3
f -37/5/3 -39/5/3 -40/5/3
f -36/5/3 -38/5/3 -37/5/3
f -35/5/3 -38/5/3 -36/5/3
f -34/5/3 -38/5/3 -35/5/3
f -27/2/3 -32/2/3 -33/2/3
f -26/2/3 -32/2/3 -27/2/3
f -25/1/3 -29/1/3 -30/1/3
f -24/6/3 -28/6/3 -29/6/3
f -24/1/3 -29/1/3 -25/1/3
f -23/6/3 -28/6/3 -24/6/3
f -20/1/3 -25/1/3 -30/1/3
f -20/6/3 -24/6/3 -25/6/3
f -19/4/3 -23/4/3 -24/4/3
f -19/6/3 -24/6/3 -20/6/3
f -18/4/3 -23/4/3 -19/4/3
f -17/2/3 -21/2/3 -22/2/3
f -16/2/3 -21/2/3 -17/2/3
f -15/6/3 -30/6/3 -31/6/3
f -14/1/3 -20/1/3 -30/1/3
f -14/6/3 -30/6/3 -15/6/3
f -14/1/3 -19/1/3 -20/1/3
f -13/6/3 -18/6/3 -19/6/3
f -13/1/3 -19/1/3 -14/1/3
f -12/6/3 -18/6/3 -13/6/3
f -8/5/3 -10/5/3 -11/5/3
f -5/5/3 -8/5/3 -9/5/3
f -4/5/3 -10/5/3 -8/5/3
f -4/5/3 -8/5/3 -5/5/3
f -3/5/3 -10/5/3 -4/5/3
f -2/5/3 -5/5/3 -6/5/3
f -2/5/3 -6/5/3 -7/5/3
f -2/5/3 -4/5/3 -5/5/3
f -1/5/3 -4/5/3 -2/5/3
v -3 3 -0
v -3 4 -0
v -3 5 -0
v -3 6 -0
v -3 7 -0
v -2 1 -0
v -2 2 -0
v -2 3 -0
v -2 4 -0
v -2 5 -0
v -2 6 -0
v -2 7 -0
v -1 1 -0
v -1 2 -0
v 1 1 -0
v 1 2 -0
v 2 1 -0
v 2 2 -0
v 2 3 -0
v 2 4 -0
v 2 5 -0
v 2 6 -0
v 2 7 -0
v 3 3 -0
v 3 4 -0
v 3 5 -0
v 3 6 -0
v 3 7 -0
f -21/1/3 -27/1/3 -28/1/3
f -20/6/3 -26/6/3 -27/6/3
f -20/1/3 -27/1/3 -21/1/3
f -19/4/3 -25/4/3 -26/4/3
f -19/6/3 -26/6/3 -20/6/3
f -18/1/3 -24/1/3 -25/1/3
f -18/4/3 -25/4/3 -19/4/3
f -17/1/3 -24/1/3 -18/1/3
f -16/4/3 -22/4/3 -23/4/3
f -15/4/3 -22/4/3 -16/4/3
f -12/4/3 -13/4/3 -14/4/3
f -11/4/3 -13/4/3 -12/4/3
f -5/1/3 -9/1/3 -10/1/3
f -4/6/3 -8/6/3 -9/6/3
f -4/1/3 -9/1/3 -5/1/3
f -3/4/3 -7/4/3 -8/4/3
f -3/6/3 -8/6/3 -4/6/3
f -2/1/3 -6/1/3 -7/1/3
f -2/4/3 -7/4/3 -3/4/3
f -1/1/3 -6/1/3 -2/1/3
v -6 2 -1
v -6 14 -1
v -5 2 -1
v -5 12 -1
v -5 13 -1
v -5 14 -1
v -5 15 -1
v -4 13 -1
v -4 14 -1
v -3 3 -1
v -3 4 -1
v -3 5 -1
v -3 14 -1
v -3 15 -1
v -2 0 -1
v -2 1 -1
v -2 2 -1
v -2 3 -1
v -2 4 -1
v -2 5 -1
v -1 0 -1
v -1 1 -1
v -1 2 -1
v 1 0 -1
v 1 1 -1
v 1 2 -1
v 2 0 -1
v 2 1 -1
v 2 2 -1
v 2 3 -1
v 2 4 -1
v 2 5 -1
v 3 3 -1
v 3 4 -1
v 3 5 -1
v 3 14 -1
v 3 15 -1
v 4 13 -1
v 4 14 -1
v 5 2 -1
v 5 12 -1
v 5 13 -1
v 5 14 -1
v 5 15 -1
v 6 2 -1
v 6 14 -1
f -46/5/4 -45/5/4 -44/5/4
f -44/5/4 -45/5/4 -43/5/4
f -43/5/4 -45/5/4 -42/5/4
f -42/5/4 -45/5/4 -41/5/4
f -41/5/4 -40/5/4 -39/5/4
f -42/5/4 -41/5/4 -39/5/4
f -39/5/4 -40/5/4 -38/5/4
f -38/5/4 -40/5/4 -34/5/4
f -34/5/4 -40/5/4 -33/5/4
f -37/1/4 -36/1/4 -29/1/4
f -36/6/4 -35/6/4 -28/6/4
f -29/1/4 -36/1/4 -28/1/4
f -28/6/4 -35/6/4 -27/6/4
f -32/2/4 -31/2/4 -26/2/4
f -31/4/4 -30/4/4 -25/4/4
f -26/2/4 -31/2/4 -25/2/4
f -30/6/4 -29/6/4 -24/6/4
f -25/4/4 -30/4/4 -24/4/4
f -24/6/4 -29/6/4 -21/6/4
f -23/2/4 -22/2/4 -20/2/4
f -22/4/4 -21/4/4 -19/4/4
f -20/2/4 -22/2/4 -19/2/4
f -21/6/4 -29/6/4 -18/6/4
f -19/4/4 -21/4/4 -18/4/4
f -29/1/4 -28/1/4 -17/1/4
f -18/6/4 -29/6/4 -17/6/4
f -28/1/4 -27/1/4 -17/1/4
f -17/1/4 -27/1/4 -16/1/4
f -16/1/4 -27/1/4 -15/1/4
f -17/1/4 -16/1/4 -14/1/4
f -16/6/4 -15/6/4 -13/6/4
f -14/1/4 -16/1/4 -13/1/4
f -13/6/4 -15/6/4 -12/6/4
f -11/5/4 -10/5/4 -8/5/4
f -9/5/4 -8/5/4 -5/5/4
f -8/5/4 -10/5/4 -4/5/4
f -5/5/4 -8/5/4 -4/5/4
f -4/5/4 -10/5/4 -3/5/4
f -6/5/4 -5/5/4 -2/5/4
f -7/5/4 -6/5/4 -2/5/4
f -5/5/4 -4/5/4 -2/5/4
f -2/5/4 -4/5/4 -1/5/4
v -5 12 -2
v -5 13 -2
v -4 5 -2
v -4 6 -2
v -4 12 -2
v -4 13 -2
v -4 14 -2
v -3 5 -2
v -3 6 -2
v -3 13 -2
v -3 14 -2
v -3 15 -2
v -2 14 -2
v -2 15 -2
v 2 14 -2
v 2 15 -2
v 3 5 -2
v 3 6 -2
v 3 13 -2
v 3 14 -2
v 3 15 -2
v 4 5 -2
v 4 6 -2
v 4 12 -2
v 4 13 -2
v 4 14 -2
v 5 12 -2
v 5 13 -2
f -28/3/4 -27/3/4 -24/3/4
f -24/3/4 -27/3/4 -23/3/4
f -26/5/4 -25/5/4 -21/5/4
f -21/5/4 -25/5/4 -20/5/4
f -23/3/4 -22/3/4 -19/3/4
f -19/3/4 -22/3/4 -18/3/4
f -18/3/4 -17/3/4 -16/3/4
f -16/3/4 -17/3/4 -15/3/4
f -14/3/4 -13/3/4 -9/3/4
f -9/3/4 -13/3/4 -8/3/4
f -12/5/4 -11/5/4 -7/5/4
f -7/5/4 -11/5/4 -6/5/4
f -10/3/4 -9/3/4 -4/3/4
f -4/3/4 -9/3/4 -3/3/4
f -5/3/4 -4/3/4 -2/3/4
f -2/3/4 -4/3/4 -1/3/4
v -4 6 -3
v -4 13 -3
v -3 5 -3
v -3 6 -3
v -3 13 -3
v -3 14 -3
v 3 5 -3
v 3 6 -3
v 3 13 -3
v 3 14 -3
v 4 6 -3
v 4 13 -3
f -12/5/4 -11/5/4 -9/5/4
f -9/5/4 -11/5/4 -8/5/4
f -10/5/4 -9/5/4 -6/5/4
f -6/5/4 -9/5/4 -5/5/4
f -8/5/4 -7/5/4 -4/5/4
f -4/5/4 -7/5/4 -3/5/4
f -5/5/4 -4/5/4 -2/5/4
f -2/5/4 -4/5/4 -1/5/4
v -3 6 -4
v -3 13 -4
v 3 6 -4
v 3 13 -4
f -4/5/4 -3/5/4 -2/5/4
f -2/5/4 -3/5/4 -1/5/4
v -2 0 1
v -1 0 1
v 1 0 1
v 2 0 1
v -2 0 -1
v -1 0 -1
v 1 0 -1
v 2 0 -1
f -4/2/5 -7/2/5 -8/2/5
f -3/2/5 -7/2/5 -4/2/5
f -2/2/5 -5/2/5 -6/2/5
f -1/2/5 -5/2/5 -2/2/5
v -6 2 1
v -5 2 1
v -2 2 1
v 2 2 1
v 5 2 1
v 6 2 1
v -2 2 -0
v -1 2 -0
v 1 2 -0
v 2 2 -0
v -6 2 -1
v -5 2 -1
v -1 2 -1
v 1 2 -1
v 5 2 -1
v 6 2 -1
f -10/6/5 -13/6/5 -14/6/5
f -9/6/5 -13/6/5 -10/6/5
f -8/6/5 -13/6/5 -9/6/5
f -7/6/5 -13/6/5 -8/6/5
f -6/5/5 -15/5/5 -16/5/5
f -5/5/5 -15/5/5 -6/5/5
f -4/6/5 -8/6/5 -9/6/5
f -3/6/5 -8/6/5 -4/6/5
f -2/5/5 -11/5/5 -12/5/5
f -1/5/5 -11/5/5 -2/5/5
v -3 3 -0
v -2 3 -0
v 2 3 -0
v 3 3 -0
v -3 3 -1
v -2 3 -1
v 2 3 -1
v 3 3 -1
f -4/1/5 -7/1/5 -8/1/5
f -3/1/5 -7/1/5 -4/1/5
f -2/1/5 -5/1/5 -6/1/5
f -1/1/5 -5/1/5 -2/1/5
v -4 5 2
v -3 5 2
v 3 5 2
v 4 5 2
v -3 5 -0
v 3 5 -0
v -3 5 -1
v -2 5 -1
v 2 5 -1
v 3 5 -1
v -4 5 -2
v -3 5 -2
v 3 5 -2
v 4 5 -2
v -3 5 -3
v 3 5 -3
f -12/5/5 -15/5/5 -16/5/5
f -11/5/5 -13/5/5 -14/5/5
f -10/5/5 -12/5/5 -16/5/5
f -7/5/5 -13/5/5 -11/5/5
f -6/5/5 -8/5/5 -9/5/5
f -6/5/5 -7/5/5 -8/5/5
f -6/5/5 -10/5/5 -16/5/5
f -6/5/5 -9/5/5 -10/5/5
f -5/5/5 -7/5/5 -6/5/5
f -4/5/5 -13/5/5 -7/5/5
f -4/5/5 -7/5/5 -5/5/5
f -3/5/5 -13/5/5 -4/5/5
f -2/5/5 -4/5/5 -5/5/5
f -1/5/5 -4/5/5 -2/5/5
v -4 6 3
v -3 6 3
v 3 6 3
v 4 6 3
v -4 6 2
v -3 6 2
v 3 6 2
v 4 6 2
v -4 6 -2
v -3 6 -2
v 3 6 -2
v 4 6 -2
v -4 6 -3
v -3 6 -3
v 3 6 -3
v 4 6 -3
v -3 6 -4
v 3 6 -4
f -14/5/5 -17/5/5 -18/5/5
f -13/5/5 -17/5/5 -14/5/5
f -12/5/5 -15/5/5 -16/5/5
f -11/5/5 -15/5/5 -12/5/5
f -6/5/5 -9/5/5 -10/5/5
f -5/5/5 -9/5/5 -6/5/5
f -4/5/5 -7/5/5 -8/5/5
f -3/5/5 -7/5/5 -4/5/5
f -2/5/5 -4/5/5 -5/5/5
f -1/5/5 -4/5/5 -2/5/5
v -3 7 3
v 3 7 3
v -2 7 1
v -1 7 1
v 1 7 1
v 2 7 1
v -3 7 -0
v -2 7 -0
v 2 7 -0
v 3 7 -0
f -8/4/5 -9/4/5 -10/4/5
f -7/4/5 -9/4/5 -8/4/5
f -6/4/5 -9/4/5 -7/4/5
f -5/4/5 -9/4/5 -6/4/5
f -4/4/5 -8/4/5 -10/4/5
f -3/4/5 -8/4/5 -4/4/5
f -2/4/5 -9/4/5 -5/4/5
f -1/4/5 -9/4/5 -2/4/5
v -3 11 4
v 3 11 4
v -3 11 3
v 3 11 3
f -2/5/5 -3/5/5 -4/5/5
f -1/5/5 -3/5/5 -2/5/5
v -5 12 2
v -4 12 2
v 4 12 2
v 5 12 2
v -5 12 1
v 5 12 1
v -5 12 -1
v 5 12 -1
v -5 12 -2
v -4 12 -2
v 4 12 -2
v 5 12 -2
f -8/3/5 -11/3/5 -12/3/5
f -7/3/5 -9/3/5 -10/3/5
f -6/3/5 -11/3/5 -8/3/5
f -5/3/5 -7/3/5 -10/3/5
f -4/3/5 -11/3/5 -6/3/5
f -3/3/5 -11/3/5 -4/3/5
f -2/3/5 -5/3/5 -10/3/5
f -1/3/5 -5/3/5 -2/3/5
v -2 1 1
v -1 1 1
v 1 1 1
v 2 1 1
v -2 1 -0
v -1 1 -0
v 1 1 -0
v 2 1 -0
f -8/2/6 -7/2/6 -4/2/6
f -4/2/6 -7/2/6 -3/2/6
f -6/2/6 -5/2/6 -2/2/6
f -2/2/6 -5/2/6 -1/2/6
v -3 13 4
v 3 13 4
v -4 13 3
v -3 13 3
v 3 13 3
v 4 13 3
v -5 13 2
v -4 13 2
v -3 13 2
v 3 13 2
v 4 13 2
v 5 13 2
v -5 13 1
v -4 13 1
v 4 13 1
v 5 13 1
v -5 13 -1
v -4 13 -1
v 4 13 -1
v 5 13 -1
v -5 13 -2
v -4 13 -2
v -3 13 -2
v 3 13 -2
v 4 13 -2
v 5 13 -2
v -4 13 -3
v -3 13 -3
v 3 13 -3
v 4 13 -3
v -3 13 -4
v 3 13 -4
f -32/5/6 -31/5/6 -29/5/6
f -29/5/6 -31/5/6 -28/5/6
f -30/5/6 -29/5/6 -25/5/6
f -25/5/6 -29/5/6 -24/5/6
f -28/5/6 -27/5/6 -23/5/6
f -23/5/6 -27/5/6 -22/5/6
f -26/3/6 -25/3/6 -20/3/6
f -20/3/6 -25/3/6 -19/3/6
f -22/3/6 -21/3/6 -18/3/6
f -18/3/6 -21/3/6 -17/3/6
f -16/3/6 -15/3/6 -12/3/6
f -12/3/6 -15/3/6 -11/3/6
f -14/3/6 -13/3/6 -8/3/6
f -8/3/6 -13/3/6 -7/3/6
f -11/5/6 -10/5/6 -6/5/6
f -6/5/6 -10/5/6 -5/5/6
f -9/5/6 -8/5/6 -4/5/6
f -4/5/6 -8/5/6 -3/5/6
f -5/5/6 -4/5/6 -2/5/6
f -2/5/6 -4/5/6 -1/5/6
v -3 14 3
v 3 14 3
v -4 14 2
v -3 14 2
v -2 14 2
v 2 14 2
v 3 14 2
v 4 14 2
v -6 14 1
v -5 14 1
v -4 14 1
v -3 14 1
v 3 14 1
v 4 14 1
v 5 14 1
v 6 14 1
v -6 14 -1
v -5 14 -1
v -4 14 -1
v -3 14 -1
v 3 14 -1
v 4 14 -1
v 5 14 -1
v 6 14 -1
v -4 14 -2
v -3 14 -2
v -2 14 -2
v 2 14 -2
v 3 14 -2
v 4 14 -2
v -3 14 -3
v 3 14 -3
f -32/5/6 -31/5/6 -29/5/6
f -29/5/6 -31/5/6 -28/5/6
f -28/5/6 -31/5/6 -27/5/6
f -27/5/6 -31/5/6 -26/5/6
f -30/3/6 -29/3/6 -22/3/6
f -22/3/6 -29/3/6 -21/3/6
f -26/3/6 -25/3/6 -20/3/6
f -20/3/6 -25/3/6 -19/3/6
f -24/5/6 -23/5/6 -16/5/6
f -16/5/6 -23/5/6 -15/5/6
f -18/5/6 -17/5/6 -10/5/6
f -10/5/6 -17/5/6 -9/5/6
f -14/3/6 -13/3/6 -8/3/6
f -8/3/6 -13/3/6 -7/3/6
f -28/5/6 -27/5/6 -6/5/6
f -6/5/6 -27/5/6 -5/5/6
f -12/3/6 -11/3/6 -4/3/6
f -4/3/6 -11/3/6 -3/3/6
f -6/5/6 -5/5/6 -2/5/6
f -5/5/6 -4/5/6 -2/5/6
f -7/5/6 -6/5/6 -2/5/6
f -2/5/6 -4/5/6 -1/5/6
v -3 15 2
v -2 15 2
v 2 15 2
v 3 15 2
v -5 15 1
v -3 15 1
v 3 15 1
v 5 15 1
v -5 15 -1
v -3 15 -1
v 3 15 -1
v 5 15 -1
v -3 15 -2
v -2 15 -2
v 2 15 -2
v 3 15 -2
f -16/3/6 -15/3/6 -11/3/6
f -14/3/6 -13/3/6 -10/3/6
f -12/5/6 -11/5/6 -8/5/6
f -11/3/6 -15/3/6 -7/3/6
f -8/5/6 -11/5/6 -7/5/6
f -10/5/6 -9/5/6 -6/5/6
f -14/3/6 -10/3/6 -6/3/6
f -6/5/6 -9/5/6 -5/5/6
f -7/3/6 -15/3/6 -4/3/6
f -4/3/6 -15/3/6 -3/3/6
f -14/3/6 -6/3/6 -2/3/6
f -2/3/6 -6/3/6 -1/3/6
